#!OML:ASF I:\Actors\actors\Patient Classification 2\Patient 1\Session 1\actor1.ASF
:FULLY-SPECIFIED
:DEGREES
1032
root -0.497972 18.7683 5.65241 0.831065 0.3762 -2.12274
lowerback 11.9709 3.40351 0.789588
upperback -0.0772533 4.74771 1.59976
thorax -6.86627 2.32022 0.40173
lowerneck 0.994958 -3.41721 3.0114
upperneck -0.0533479 -4.59296 -10.43
head -0.539819 -2.25929 -3.87551
rclavicle -2.5842e-014 0
rhumerus 26.5989 13.1299 -60.5901
rradius 129.905
rwrist 6.98999
rhand -36.5648 -30.7664
rfingers 7.12502
rthumb -9.65476 -60.5251
lclavicle -2.5842e-014 0
lhumerus -55.4448 -25.2722 106.106
lradius 112.164
lwrist -2.2175
lhand -11.1389 -34.0186
lfingers 7.12502
lthumb 14.8867 -4.5735
rfemur 0 0 0
rtibia 0
rfoot 0 0
rtoes 0
lfemur -7.68087 -3.72222 -15.7531
ltibia 25.4427
lfoot -21.7303 12.4594
ltoes -55.9381
1033
root -0.49587 18.7729 5.63198 0.977524 0.31377 -2.04013
lowerback 12.128 3.37924 0.854088
upperback 0.00119602 4.73057 1.68164
thorax -6.87305 2.31051 0.447855
lowerneck 0.973325 -3.46917 2.98836
upperneck -0.0681946 -4.66492 -10.4278
head -0.54543 -2.29553 -3.8693
rclavicle -1.76918e-014 1.98785e-015
rhumerus 26.6387 13.1129 -60.5464
rradius 129.892
rwrist 6.97765
rhand -36.839 -30.4958
rfingers 7.12502
rthumb -9.91936 -60.2421
lclavicle -1.76918e-014 1.98785e-015
lhumerus -55.3808 -25.2778 106.109
lradius 112.146
lwrist -2.25501
lhand -11.1732 -34.0674
lfingers 7.12502
lthumb 14.8536 -4.6198
rfemur 0 0 0
rtibia 0
rfoot 0 0
rtoes 0
lfemur -7.89756 -3.60769 -15.8332
ltibia 25.4224
lfoot -21.6037 12.4346
ltoes -55.9202
1034
root -0.497188 18.7761 5.61624 1.05462 0.265623 -1.97053
lowerback 12.3052 3.34332 0.914055
upperback 0.100078 4.69629 1.74975
thorax -6.86832 2.2924 0.484736
lowerneck 0.896322 -3.52896 2.83923
upperneck -0.0784085 -4.74635 -10.244
head -0.531249 -2.3387 -3.77571
rclavicle 1.88845e-014 -2.18663e-014
rhumerus 26.8412 13.02 -60.3036
rradius 130.004
rwrist 6.81128
rhand -37.0915 -30.6279
rfingers 7.12502
rthumb -10.1629 -60.3625
lclavicle 1.88845e-014 -2.18663e-014
lhumerus -55.3643 -25.3325 106.049
lradius 112.176
lwrist -2.25179
lhand -11.1594 -34.1282
lfingers 7.12502
lthumb 14.8669 -4.68164
rfemur 0 0 0
rtibia 0
rfoot 0 0
rtoes 0
lfemur -8.01683 -3.51522 -15.8909
ltibia 25.4043
lfoot -21.4996 12.4262
ltoes -55.9551
1035
root -0.499017 18.7794 5.6007 1.15075 0.21325 -1.9569
lowerback 12.4829 3.30445 1.0321
upperback 0.161418 4.66796 1.82047
thorax -6.89937 2.27495 0.489826
lowerneck 0.995656 -3.60388 2.62691
upperneck -0.259259 -4.86166 -10.011
head -0.601616 -2.38986 -3.6479
rclavicle 1.1778e-014 -2.8625e-014
rhumerus 27.2514 12.845 -59.8578
rradius 130.191
rwrist 6.69087
rhand -36.794 -31.4775
rfingers 7.12502
rthumb -9.87592 -61.2259
lclavicle 1.1778e-014 -2.8625e-014
lhumerus -55.4241 -25.4172 106.008
lradius 112.23
lwrist -2.19012
lhand -11.0697 -34.0697
lfingers 7.12502
lthumb 14.9534 -4.62951
rfemur 0 0 0
rtibia 0
rfoot 0 0
rtoes 0
lfemur -8.15572 -3.48221 -15.8849
ltibia 25.3898
lfoot -21.4568 12.4522
ltoes -55.9298
1036
root -0.49851 18.7829 5.58429 1.27002 0.161007 -1.9607
lowerback 12.6788 3.24832 1.199
upperback 0.174176 4.62528 1.87771
thorax -6.98733 2.2479 0.453688
lowerneck 1.15768 -3.66784 2.5201
upperneck -0.427134 -4.96192 -9.92583
head -0.685072 -2.43172 -3.59148
rclavicle 1.99779e-014 -2.0276e-014
rhumerus 27.5065 12.8231 -59.6166
rradius 130.339
rwrist 6.80874
rhand -36.0955 -32.3526
rfingers 7.12502
rthumb -9.20195 -62.1319
lclavicle 1.99779e-014 -2.0276e-014
lhumerus -55.4629 -25.4825 105.993
lradius 112.249
lwrist -2.13868
lhand -10.9807 -33.9337
lfingers 7.12502
lthumb 15.0391 -4.49991
rfemur 0 0 0
rtibia 0
rfoot 0 0
rtoes 0
lfemur -8.33594 -3.46818 -15.8702
ltibia 25.3854
lfoot -21.4219 12.5184
ltoes -55.9626
1037
root -0.497798 18.7851 5.57093 1.35204 0.0983668 -1.93499
lowerback 12.8658 3.1783 1.31149
upperback 0.20939 4.5568 1.94573
thorax -7.05153 2.2106 0.465573
lowerneck 1.12352 -3.71799 2.4752
upperneck -0.426077 -5.0308 -9.95658
head -0.68313 -2.46687 -3.59302
rclavicle -5.62064e-014 -1.39149e-014
rhumerus 27.5997 12.9487 -59.5109
rradius 130.426
rwrist 6.955
rhand -35.9704 -32.7473
rfingers 7.12502
rthumb -9.08125 -62.5318
lclavicle -5.62064e-014 -1.39149e-014
lhumerus -55.4283 -25.4754 105.994
lradius 112.231
lwrist -2.12687
lhand -10.9444 -33.8487
lfingers 7.12502
lthumb 15.0741 -4.41754
rfemur 0 0 0
rtibia 0
rfoot 0 0
rtoes 0
lfemur -8.46237 -3.47176 -15.8974
ltibia 25.3895
lfoot -21.4119 12.6147
ltoes -56.0132
1038
root -0.49856 18.787 5.55998 1.43039 -0.000728775 -1.93491
lowerback 12.9732 3.11498 1.37815
upperback 0.198856 4.49366 2.05474
thorax -7.12702 2.17837 0.548666
lowerneck 1.40127 -3.80357 2.4188
upperneck -0.566578 -5.15988 -9.98751
head -0.785466 -2.52012 -3.58394
rclavicle -2.98177e-016 5.56597e-015
rhumerus 27.2375 13.1008 -59.589
rradius 130.508
rwrist 7.03851
rhand -36.3723 -32.7121
rfingers 7.12502
rthumb -9.46903 -62.4794
lclavicle -2.98177e-016 5.56597e-015
lhumerus -55.5078 -25.3545 106.082
lradius 112.188
lwrist -2.15361
lhand -10.9316 -33.8657
lfingers 7.12502
lthumb 15.0864 -4.43547
rfemur 0 0 0
rtibia 0
rfoot 0 0
rtoes 0
lfemur -8.56248 -3.46956 -15.8944
ltibia 25.3882
lfoot -21.4113 12.7166
ltoes -55.997
1039
root -0.500165 18.7888 5.55071 1.49681 -0.104052 -1.96308
lowerback 13.0825 3.05967 1.4708
upperback 0.143892 4.4455 2.14259
thorax -7.24742 2.1516 0.591083
lowerneck 1.85218 -3.91148 2.32176
upperneck -0.758175 -5.32278 -9.90125
head -0.931737 -2.58492 -3.52173
rclavicle 3.11098e-014 1.66979e-014
rhumerus 26.4263 13.2019 -60.0101
rradius 130.543
rwrist 7.33114
rhand -36.4443 -32.2305
rfingers 7.12502
rthumb -9.53849 -61.9946
lclavicle 3.11098e-014 1.66979e-014
lhumerus -55.75 -25.2636 106.199
lradius 112.178
lwrist -2.24265
lhand -11.0117 -33.9595
lfingers 7.12502
lthumb 15.0092 -4.52352
rfemur 0 0 0
rtibia 0
rfoot 0 0
rtoes 0
lfemur -8.6392 -3.39738 -15.8509
ltibia 25.373
lfoot -21.3849 12.7437
ltoes -56.0373
1040
root -0.501197 18.7905 5.54325 1.55986 -0.206728 -1.96311
lowerback 13.1903 3.01202 1.59546
upperback 0.202157 4.40258 2.15448
thorax -7.23696 2.12626 0.538072
lowerneck 1.73522 -3.97826 2.08801
upperneck -0.772613 -5.41358 -9.64975
head -0.904847 -2.63421 -3.39052
rclavicle 4.44284e-014 1.19271e-014
rhumerus 25.8923 13.3259 -60.3839
rradius 130.69
rwrist 7.74982
rhand -36.2407 -31.8169
rfingers 7.12502
rthumb -9.34206 -61.5899
lclavicle 4.44284e-014 1.19271e-014
lhumerus -55.7613 -25.3478 106.157
lradius 112.19
lwrist -2.28365
lhand -11.0549 -34.0539
lfingers 7.12502
lthumb 14.9676 -4.61481
rfemur 0 0 0
rtibia 0
rfoot 0 0
rtoes 0
lfemur -8.70359 -3.28164 -15.836
ltibia 25.3503
lfoot -21.3654 12.7148
ltoes -56.0547
1041
root -0.501967 18.7921 5.53634 1.62553 -0.333361 -1.93593
lowerback 13.2731 2.94998 1.68246
upperback 0.291227 4.33251 2.15842
thorax -7.18165 2.08961 0.505162
lowerneck 1.52827 -4.02254 1.71731
upperneck -0.879373 -5.48257 -9.3883
head -0.885082 -2.67183 -3.23307
rclavicle -1.65985e-014 -7.15625e-015
rhumerus 25.4591 13.6933 -60.6517
rradius 131.064
rwrist 8.20191
rhand -36.1991 -31.6547
rfingers 7.12502
rthumb -9.30194 -61.4295
lclavicle -1.65985e-014 -7.15625e-015
lhumerus -55.4822 -25.4299 106.005
lradius 112.103
lwrist -2.22552
lhand -11.0053 -34.1364
lfingers 7.12502
lthumb 15.0153 -4.70086
rfemur 0 0 0
rtibia 0
rfoot 0 0
rtoes 0
lfemur -8.7632 -3.14598 -15.8524
ltibia 25.3256
lfoot -21.3493 12.6678
ltoes -55.9532
